<svg width="24" height="24" viewBox="0 0 24 24" fill="none" xmlns="http://www.w3.org/2000/svg">
<path d="M9 22H15C20 22 22 20 22 15V9C22 4 20 2 15 2H9C4 2 2 4 2 9V15C2 20 4 22 9 22Z" stroke="currentColor" stroke-width="1.5" stroke-linecap="round" stroke-linejoin="round"/>
<path d="M16.2799 13.6099C15.1499 14.7399 13.5299 15.0899 12.0999 14.6399L9.50995 17.2199C9.32995 17.4099 8.95995 17.5299 8.68995 17.4899L7.48995 17.3299C7.08995 17.2799 6.72995 16.8999 6.66995 16.5099L6.50995 15.3099C6.46995 15.0499 6.59995 14.6799 6.77995 14.4899L9.35995 11.9099C8.91995 10.4799 9.25995 8.85989 10.3899 7.72989C12.0099 6.10989 14.6499 6.10989 16.2799 7.72989C17.8999 9.33989 17.8999 11.9799 16.2799 13.6099Z" stroke="currentColor" stroke-width="1.5" stroke-miterlimit="10" stroke-linecap="round" stroke-linejoin="round"/>
<path d="M10.4501 16.2799L9.6001 15.4199" stroke="currentColor" stroke-width="1.5" stroke-miterlimit="10" stroke-linecap="round" stroke-linejoin="round"/>
<path d="M13.3945 10.7H13.4035" stroke="currentColor" stroke-width="2" stroke-linecap="round" stroke-linejoin="round"/>
</svg>
